<?xml version="1.0" encoding="UTF-8"?>
<!-- Created with Inkscape (http://www.inkscape.org/) -->
<svg width="106.83mm" height="50.019mm" version="1.1" viewBox="0 0 106.83 50.019" xmlns="http://www.w3.org/2000/svg">
 <g transform="translate(-27.999 -71.282)">
  <g fill-rule="evenodd">
   <path d="m100.7 97.748-7.3517 3.7052v-10.819l7.3517-4.5572z" points="93.349013,101.45306 93.349013,90.633724 100.70069,86.076481 100.70069,97.747895 " fill="#e9e9ff"/>
   <path d="m93.349 101.45v-10.819l-20.291-10.066v12.701z" points="93.349013,90.633724 73.057884,80.568039 73.057884,93.269374 93.349013,101.45306 " fill="#353564"/>
   <path d="m100.7 86.076-7.3517 4.5572-20.291-10.066 6.8483-6.3678z" points="93.349013,90.633724 73.057884,80.568039 79.906187,74.20023 100.70069,86.076481 " fill="#4d4d9f"/>
   <path d="m100.7 97.748-7.3517 3.7052-20.291-8.1837 6.8483-5.1772z" points="93.349013,101.45306 73.057884,93.269374 79.906187,88.092163 100.70069,97.747895 " fill="#afafde"/>
   <path d="m100.7 97.748v-11.671l-20.795-11.876v13.892z" points="100.70069,86.076481 79.906187,74.20023 79.906187,88.092163 100.70069,97.747895 " fill="#d7d7ff"/>
   <path d="m79.906 88.092-6.8483 5.1772v-12.701l6.8483-6.3678z" points="73.057884,93.269374 73.057884,80.568039 79.906187,74.20023 79.906187,88.092163 " fill="#8686bf"/>
  </g>
 </g>
 <g transform="translate(-27.999 -71.282)">
  <g transform="matrix(.26458 0 0 .26458 15.27 30.146)" fill="#a268b3" stroke-miterlimit="10" style="mix-blend-mode:normal" data-paper-data='{"baselineProportion":0.7977941176470589,"fontSize":100,"baseline":86.80000000000001,"elementType":"word"}'>
   <path d="m50 179.16h60.962v5.7897h-55.172v53.299h49.553v5.7897h-49.553v55.343h56.705v5.7897h-62.495z" data-paper-data='{"elementType":"letter","baseline":74,"baselineProportion":1,"fontSize":100}'/>
   <path d="m121.18 304.49 31.162-46.828-29.119-43.593v-0.85143h6.3006l22.989 34.398 3.4057 5.4491h0.34057l3.4057-5.4491 22.648-34.398h6.3006v0.85143l-29.119 44.104 31.162 46.318v0.68114h-6.6411l-24.691-37.292-3.4057-5.1086h-0.34057l-3.2354 5.1086-24.521 37.292h-6.6411z" data-paper-data='{"elementType":"letter","baseline":54,"baselineProportion":1,"fontSize":100}'/>
   <path d="m233.4 305.85c-13.85 0-20.775-7.8899-20.775-23.67v-63.176h-17.71v-5.7897h17.88l0.85143-21.286 4.768-1.3623v22.648h25.883v5.7897h-25.883v63.176c0 5.7897 1.3339 10.217 4.0017 13.282 2.6678 3.0651 6.556 4.5977 11.665 4.5977 1.2488 0 2.8097-0.11352 4.6828-0.34057 1.8731-0.22705 3.4341-0.51086 4.6828-0.85143v5.7897c-3.9733 0.79466-7.3223 1.192-10.047 1.192z" data-paper-data='{"elementType":"letter","baseline":67.3,"baselineProportion":0.9940915805022156,"fontSize":100}'/>
   <path d="m258.94 157.36h27.756v5.7897h-21.967v163.47h21.967v5.7897h-27.756z" data-paper-data='{"elementType":"letter","baseline":86.80000000000001,"baselineProportion":0.8443579766536965,"fontSize":100}'/>
   <path d="m296.57 332.42v-5.7897h21.967v-163.47h-21.967v-5.7897h27.756v175.05z" data-paper-data='{"elementType":"letter","baseline":86.80000000000001,"baselineProportion":0.8443579766536965,"fontSize":100}'/>
   <path d="m352.77 305.34c-3.5192 0-5.2788-1.7596-5.2788-5.2788 0-3.6328 1.7596-5.4491 5.2788-5.4491 1.5893 0 2.8948 0.51086 3.9166 1.5326s1.5326 2.3272 1.5326 3.9166-0.51086 2.8665-1.5326 3.8314-2.3272 1.4474-3.9166 1.4474z" data-paper-data='{"elementType":"letter","baseline":6.200000000000003,"baselineProportion":0.9841269841269851,"fontSize":100}'/>
   <path d="m366.39 339.4c4.6545-7.7196 8.0886-15.808 10.302-24.266 2.2137-8.4575 3.3206-18.022 3.3206-28.693v-73.223h5.7897v76.118c0 9.536-1.3055 18.845-3.9166 27.927s-6.4141 17.539-11.409 25.372zm16.518-150.7c-3.2922 0-4.9383-1.6461-4.9383-4.9383 0-3.4057 1.6461-5.1086 4.9383-5.1086 1.5893 0 2.8381 0.45409 3.7463 1.3623s1.3623 2.157 1.3623 3.7463-0.45409 2.8097-1.3623 3.6611c-0.90819 0.85143-2.157 1.2771-3.7463 1.2771" data-paper-data='{"elementType":"letter","baseline":74.3,"baselineProportion":0.7715472481827622,"fontSize":100}'/>
   <path d="m425.65 307.22c-2.8381 0-5.8181-0.22705-8.94-0.68114-3.1219-0.45409-7.3506-1.3055-12.686-2.5543v-6.3006c3.6328 1.1352 7.2087 2.015 10.728 2.6394s6.6411 0.93657 9.3657 0.93657c6.3573 0 11.182-1.7312 14.474-5.1937s4.9383-8.2588 4.9383-14.389c0-5.4491-1.2488-9.8198-3.7463-13.112s-6.6411-5.7897-12.431-7.4926c-2.611-0.79466-5.2505-1.6745-7.9183-2.6394s-5.0802-2.3556-7.2371-4.172c-2.157-1.8164-3.8882-4.2288-5.1937-7.2371s-1.9583-6.9533-1.9583-11.835c0-7.379 2.2705-13.254 6.8114-17.625s10.614-6.556 18.221-6.556c1.2488 0 2.4124 0.0284 3.4908 0.0851 1.0785 0.0568 2.2705 0.19867 3.576 0.42571 1.3055 0.22705 2.7246 0.51086 4.2571 0.85143s3.4341 0.7379 5.7046 1.192v6.1303c-6.5844-1.8164-12.204-2.7246-16.858-2.7246-6.0167 0-10.671 1.561-13.963 4.6828-3.2922 3.1219-4.9383 7.6344-4.9383 13.538 0 3.5192 0.45409 6.3573 1.3623 8.5143 0.90819 2.157 2.157 3.9449 3.7463 5.364s3.4625 2.5827 5.6194 3.4908c2.157 0.90819 4.5409 1.7596 7.152 2.5543 7.6061 2.4975 12.97 5.7329 16.092 9.7063 3.1219 3.9733 4.6828 9.5927 4.6828 16.858 0 8.0602-2.2988 14.332-6.8966 18.817s-10.416 6.7263-17.454 6.7263z" data-paper-data='{"elementType":"letter","baseline":55.300000000000004,"baselineProportion":0.9787610619469026,"fontSize":100}'/>
  </g>
 </g>
</svg>
