<?xml version="1.0" encoding="UTF-8" standalone="no"?>
<!-- Created with Inkscape (http://www.inkscape.org/) -->

<svg
   width="403.76694"
   height="189.04819"
   version="1.1"
   viewBox="0 0 106.83 50.019"
   id="svg38"
   sodipodi:docname="inkscp.svg"
   inkscape:version="1.1.1 (c3084ef, 2021-09-22)"
   xmlns:inkscape="http://www.inkscape.org/namespaces/inkscape"
   xmlns:sodipodi="http://sodipodi.sourceforge.net/DTD/sodipodi-0.dtd"
   xmlns="http://www.w3.org/2000/svg"
   xmlns:svg="http://www.w3.org/2000/svg">
  <defs
     id="defs42" />
  <sodipodi:namedview
     id="namedview40"
     pagecolor="#505050"
     bordercolor="#eeeeee"
     borderopacity="1"
     inkscape:pageshadow="0"
     inkscape:pageopacity="0"
     inkscape:pagecheckerboard="0"
     inkscape:document-units="mm"
     showgrid="false"
     units="px"
     inkscape:zoom="0.76553073"
     inkscape:cx="238.3967"
     inkscape:cy="213.57732"
     inkscape:window-width="1440"
     inkscape:window-height="847"
     inkscape:window-x="0"
     inkscape:window-y="25"
     inkscape:window-maximized="0"
     inkscape:current-layer="layer2" />
  <g
     inkscape:groupmode="layer"
     id="layer2"
     inkscape:label="Layer 2">
    <g
       transform="translate(-27.998999,-71.281999)"
       id="g16">
      <g
         fill-rule="evenodd"
         id="g14">
        <path
           d="m 100.7,97.748 -7.3517,3.7052 V 90.6342 L 100.7,86.077 Z"
           points="93.349013,101.45306 93.349013,90.633724 100.70069,86.076481 100.70069,97.747895 "
           fill="#e9e9ff"
           id="path2" />
        <path
           d="M 93.349,101.45 V 90.631 L 73.058,80.565 v 12.701 z"
           points="93.349013,90.633724 73.057884,80.568039 73.057884,93.269374 93.349013,101.45306 "
           fill="#353564"
           id="path4" />
        <path
           d="m 100.7,86.076 -7.3517,4.5572 -20.291,-10.066 6.8483,-6.3678 z"
           points="93.349013,90.633724 73.057884,80.568039 79.906187,74.20023 100.70069,86.076481 "
           fill="#4d4d9f"
           id="path6" />
        <path
           d="m 100.7,97.748 -7.3517,3.7052 -20.291,-8.1837 6.8483,-5.1772 z"
           points="93.349013,101.45306 73.057884,93.269374 79.906187,88.092163 100.70069,97.747895 "
           fill="#afafde"
           id="path8" />
        <path
           d="M 100.7,97.748 V 86.077 L 79.905,74.201 v 13.892 z"
           points="100.70069,86.076481 79.906187,74.20023 79.906187,88.092163 100.70069,97.747895 "
           fill="#d7d7ff"
           id="path10" />
        <path
           d="m 79.906,88.092 -6.8483,5.1772 v -12.701 l 6.8483,-6.3678 z"
           points="73.057884,93.269374 73.057884,80.568039 79.906187,74.20023 79.906187,88.092163 "
           fill="#8686bf"
           id="path12" />
      </g>
    </g>
  </g>
  <g
     inkscape:groupmode="layer"
     id="layer1"
     inkscape:label="Layer 1">
    <g
       transform="translate(-27.998999,-71.281999)"
       id="g36">
      <g
         transform="matrix(0.26458,0,0,0.26458,15.27,30.146)"
         fill="#a268b3"
         stroke-miterlimit="10"
         style="mix-blend-mode:normal"
         data-paper-data="{&quot;baselineProportion&quot;:0.7977941176470589,&quot;fontSize&quot;:100,&quot;baseline&quot;:86.80000000000001,&quot;elementType&quot;:&quot;word&quot;}"
         id="g34">
        <path
           d="m 50,179.16 h 60.962 v 5.7897 H 55.79 v 53.299 h 49.553 v 5.7897 H 55.79 v 55.343 h 56.705 v 5.7897 H 50 Z"
           data-paper-data="{&quot;elementType&quot;:&quot;letter&quot;,&quot;baseline&quot;:74,&quot;baselineProportion&quot;:1,&quot;fontSize&quot;:100}"
           id="path18" />
        <path
           d="m 121.18,304.49 31.162,-46.828 -29.119,-43.593 v -0.85143 h 6.3006 l 22.989,34.398 3.4057,5.4491 h 0.34057 l 3.4057,-5.4491 22.648,-34.398 h 6.3006 v 0.85143 l -29.119,44.104 31.162,46.318 v 0.68114 h -6.6411 l -24.691,-37.292 -3.4057,-5.1086 h -0.34057 l -3.2354,5.1086 -24.521,37.292 h -6.6411 z"
           data-paper-data="{&quot;elementType&quot;:&quot;letter&quot;,&quot;baseline&quot;:54,&quot;baselineProportion&quot;:1,&quot;fontSize&quot;:100}"
           id="path20" />
        <path
           d="m 233.4,305.85 c -13.85,0 -20.775,-7.8899 -20.775,-23.67 v -63.176 h -17.71 v -5.7897 h 17.88 l 0.85143,-21.286 4.768,-1.3623 v 22.648 h 25.883 v 5.7897 h -25.883 v 63.176 c 0,5.7897 1.3339,10.217 4.0017,13.282 2.6678,3.0651 6.556,4.5977 11.665,4.5977 1.2488,0 2.8097,-0.11352 4.6828,-0.34057 1.8731,-0.22705 3.4341,-0.51086 4.6828,-0.85143 v 5.7897 c -3.9733,0.79466 -7.3223,1.192 -10.047,1.192 z"
           data-paper-data="{&quot;elementType&quot;:&quot;letter&quot;,&quot;baseline&quot;:67.3,&quot;baselineProportion&quot;:0.9940915805022156,&quot;fontSize&quot;:100}"
           id="path22" />
        <path
           d="m 258.94,157.36 h 27.756 v 5.7897 h -21.967 v 163.47 h 21.967 v 5.7897 H 258.94 Z"
           data-paper-data="{&quot;elementType&quot;:&quot;letter&quot;,&quot;baseline&quot;:86.80000000000001,&quot;baselineProportion&quot;:0.8443579766536965,&quot;fontSize&quot;:100}"
           id="path24" />
        <path
           d="m 296.57,332.42 v -5.7897 h 21.967 v -163.47 H 296.57 v -5.7897 h 27.756 v 175.05 z"
           data-paper-data="{&quot;elementType&quot;:&quot;letter&quot;,&quot;baseline&quot;:86.80000000000001,&quot;baselineProportion&quot;:0.8443579766536965,&quot;fontSize&quot;:100}"
           id="path26" />
        <path
           d="m 352.77,305.34 c -3.5192,0 -5.2788,-1.7596 -5.2788,-5.2788 0,-3.6328 1.7596,-5.4491 5.2788,-5.4491 1.5893,0 2.8948,0.51086 3.9166,1.5326 1.0218,1.02174 1.5326,2.3272 1.5326,3.9166 0,1.5894 -0.51086,2.8665 -1.5326,3.8314 -1.02174,0.9649 -2.3272,1.4474 -3.9166,1.4474 z"
           data-paper-data="{&quot;elementType&quot;:&quot;letter&quot;,&quot;baseline&quot;:6.200000000000003,&quot;baselineProportion&quot;:0.9841269841269851,&quot;fontSize&quot;:100}"
           id="path28" />
        <path
           d="m 366.39,339.4 c 4.6545,-7.7196 8.0886,-15.808 10.302,-24.266 2.2137,-8.4575 3.3206,-18.022 3.3206,-28.693 v -73.223 h 5.7897 v 76.118 c 0,9.536 -1.3055,18.845 -3.9166,27.927 -2.6111,9.082 -6.4141,17.539 -11.409,25.372 z m 16.518,-150.7 c -3.2922,0 -4.9383,-1.6461 -4.9383,-4.9383 0,-3.4057 1.6461,-5.1086 4.9383,-5.1086 1.5893,0 2.8381,0.45409 3.7463,1.3623 0.9082,0.90821 1.3623,2.157 1.3623,3.7463 0,1.5893 -0.45409,2.8097 -1.3623,3.6611 -0.90819,0.85143 -2.157,1.2771 -3.7463,1.2771"
           data-paper-data="{&quot;elementType&quot;:&quot;letter&quot;,&quot;baseline&quot;:74.3,&quot;baselineProportion&quot;:0.7715472481827622,&quot;fontSize&quot;:100}"
           id="path30" />
        <path
           d="m 425.65,307.22 c -2.8381,0 -5.8181,-0.22705 -8.94,-0.68114 -3.1219,-0.45409 -7.3506,-1.3055 -12.686,-2.5543 v -6.3006 c 3.6328,1.1352 7.2087,2.015 10.728,2.6394 3.5193,0.6244 6.6411,0.93657 9.3657,0.93657 6.3573,0 11.182,-1.7312 14.474,-5.1937 3.292,-3.4625 4.9383,-8.2588 4.9383,-14.389 0,-5.4491 -1.2488,-9.8198 -3.7463,-13.112 -2.4975,-3.2922 -6.6411,-5.7897 -12.431,-7.4926 -2.611,-0.79466 -5.2505,-1.6745 -7.9183,-2.6394 -2.6678,-0.9649 -5.0802,-2.3556 -7.2371,-4.172 -2.157,-1.8164 -3.8882,-4.2288 -5.1937,-7.2371 -1.3055,-3.0083 -1.9583,-6.9533 -1.9583,-11.835 0,-7.379 2.2705,-13.254 6.8114,-17.625 4.5409,-4.371 10.614,-6.556 18.221,-6.556 1.2488,0 2.4124,0.0284 3.4908,0.0851 1.0785,0.0568 2.2705,0.19867 3.576,0.42571 1.3055,0.22705 2.7246,0.51086 4.2571,0.85143 1.5325,0.34057 3.4341,0.7379 5.7046,1.192 v 6.1303 c -6.5844,-1.8164 -12.204,-2.7246 -16.858,-2.7246 -6.0167,0 -10.671,1.561 -13.963,4.6828 -3.2922,3.1219 -4.9383,7.6344 -4.9383,13.538 0,3.5192 0.45409,6.3573 1.3623,8.5143 0.90819,2.157 2.157,3.9449 3.7463,5.364 1.5893,1.4191 3.4625,2.5827 5.6194,3.4908 2.157,0.90819 4.5409,1.7596 7.152,2.5543 7.6061,2.4975 12.97,5.7329 16.092,9.7063 3.1219,3.9733 4.6828,9.5927 4.6828,16.858 0,8.0602 -2.2988,14.332 -6.8966,18.817 -4.5978,4.485 -10.416,6.7263 -17.454,6.7263 z"
           data-paper-data="{&quot;elementType&quot;:&quot;letter&quot;,&quot;baseline&quot;:55.300000000000004,&quot;baselineProportion&quot;:0.9787610619469026,&quot;fontSize&quot;:100}"
           id="path32" />
      </g>
    </g>
  </g>
</svg>
